<?xml version="1.0" encoding="UTF-8"?>
<!DOCTYPE svg PUBLIC "-//W3C//DTD SVG 1.1//EN" "http://www.w3.org/Graphics/SVG/1.1/DTD/svg11.dtd">
<svg xmlns="http://www.w3.org/2000/svg" version="1.1" width="900px" height="900px" style="shape-rendering:geometricPrecision; text-rendering:geometricPrecision; image-rendering:optimizeQuality; fill-rule:evenodd; clip-rule:evenodd" xmlns:xlink="http://www.w3.org/1999/xlink">
<g><path style="opacity:1" fill="#fefefe" d="M -0.5,-0.5 C 299.5,-0.5 599.5,-0.5 899.5,-0.5C 899.5,299.5 899.5,599.5 899.5,899.5C 599.5,899.5 299.5,899.5 -0.5,899.5C -0.5,599.5 -0.5,299.5 -0.5,-0.5 Z"/></g>
<g><path style="opacity:1" fill="#24b8aa" d="M 665.5,217.5 C 639.163,272.84 612.83,328.173 586.5,383.5C 579.061,384.739 571.728,386.406 564.5,388.5C 591.755,330.824 619.421,273.324 647.5,216C 647.272,215.601 646.938,215.435 646.5,215.5C 651.801,212.731 657.468,210.731 663.5,209.5C 664.167,212.167 664.833,214.833 665.5,217.5 Z"/></g>
<g><path style="opacity:1" fill="#1f8d88" d="M 258.5,217.5 C 236.014,263.807 213.514,310.14 191,356.5C 190.329,357.252 189.496,357.586 188.5,357.5C 186.748,357.582 185.748,356.749 185.5,355C 201.575,306.104 218.408,257.604 236,209.5C 243.36,212.599 250.86,215.265 258.5,217.5 Z"/></g>
<g><path style="opacity:1" fill="#22b2a5" d="M 646.5,215.5 C 646.938,215.435 647.272,215.601 647.5,216C 619.421,273.324 591.755,330.824 564.5,388.5C 555.679,391.107 547.012,394.107 538.5,397.5C 565.888,339.056 593.555,280.723 621.5,222.5C 629.686,220.034 638.019,217.7 646.5,215.5 Z"/></g>
<g><path style="opacity:1" fill="#1c928b" d="M 258.5,217.5 C 263.358,219.298 268.358,220.632 273.5,221.5C 273.804,222.15 274.137,222.817 274.5,223.5C 252,269.833 229.5,316.167 207,362.5C 206.329,363.252 205.496,363.586 204.5,363.5C 198.891,362.02 193.557,360.02 188.5,357.5C 189.496,357.586 190.329,357.252 191,356.5C 213.514,310.14 236.014,263.807 258.5,217.5 Z"/></g>
<g><path style="opacity:1" fill="#21ab9f" d="M 621.5,222.5 C 593.555,280.723 565.888,339.056 538.5,397.5C 530.717,400.225 523.051,403.225 515.5,406.5C 516.031,403.763 516.864,401.096 518,398.5C 545.5,341.5 573,284.5 600.5,227.5C 600.376,226.893 600.043,226.56 599.5,226.5C 606.626,224.715 613.959,223.382 621.5,222.5 Z"/></g>
<g><path style="opacity:1" fill="#1e9991" d="M 273.5,221.5 C 280.342,223.602 287.342,224.935 294.5,225.5C 276.896,264.043 258.73,302.376 240,340.5C 235.314,350.546 230.147,360.213 224.5,369.5C 217.465,368.412 210.799,366.412 204.5,363.5C 205.496,363.586 206.329,363.252 207,362.5C 229.5,316.167 252,269.833 274.5,223.5C 274.137,222.817 273.804,222.15 273.5,221.5 Z"/></g>
<g><path style="opacity:1" fill="#1fa096" d="M 294.5,225.5 C 300.853,226.047 307.186,226.714 313.5,227.5C 289.995,276.509 265.995,325.176 241.5,373.5C 235.472,373.242 229.806,371.908 224.5,369.5C 230.147,360.213 235.314,350.546 240,340.5C 258.73,302.376 276.896,264.043 294.5,225.5 Z"/></g>
<g><path style="opacity:1" fill="#20a69b" d="M 585.5,227.5 C 589.97,226.514 594.637,226.181 599.5,226.5C 600.043,226.56 600.376,226.893 600.5,227.5C 573,284.5 545.5,341.5 518,398.5C 516.864,401.096 516.031,403.763 515.5,406.5C 509.833,409.167 504.167,411.833 498.5,414.5C 527.61,352.279 557.277,290.279 587.5,228.5C 587.043,227.702 586.376,227.369 585.5,227.5 Z"/></g>
<g><path style="opacity:1" fill="#25beaf" d="M 665.5,217.5 C 668.537,224.942 671.204,232.609 673.5,240.5C 651.362,287.442 628.695,334.109 605.5,380.5C 599.061,380.929 592.727,381.929 586.5,383.5C 612.83,328.173 639.163,272.84 665.5,217.5 Z"/></g>
<g><path style="opacity:1" fill="#21a59b" d="M 313.5,227.5 C 319.534,227.886 325.534,228.553 331.5,229.5C 307.847,278.14 284.18,326.807 260.5,375.5C 259.675,376.386 258.675,376.719 257.5,376.5C 251.858,376.504 246.525,375.504 241.5,373.5C 265.995,325.176 289.995,276.509 313.5,227.5 Z"/></g>
<g><path style="opacity:1" fill="#1fa097" d="M 585.5,227.5 C 586.376,227.369 587.043,227.702 587.5,228.5C 557.277,290.279 527.61,352.279 498.5,414.5C 483.461,421.51 470.461,431.177 459.5,443.5C 492.476,372.714 526.142,302.214 560.5,232C 559.207,231.51 557.873,231.343 556.5,231.5C 565.866,228.952 575.533,227.619 585.5,227.5 Z"/></g>
<g><path style="opacity:1" fill="#21ab9f" d="M 331.5,229.5 C 336.882,230.286 342.216,231.286 347.5,232.5C 347.611,233.117 347.944,233.617 348.5,234C 325.039,281.757 301.705,329.59 278.5,377.5C 278.043,378.298 277.376,378.631 276.5,378.5C 269.95,378.546 263.617,377.879 257.5,376.5C 258.675,376.719 259.675,376.386 260.5,375.5C 284.18,326.807 307.847,278.14 331.5,229.5 Z"/></g>
<g><path style="opacity:1" fill="#1e9991" d="M 556.5,231.5 C 557.873,231.343 559.207,231.51 560.5,232C 526.142,302.214 492.476,372.714 459.5,443.5C 456.502,449.171 454.335,455.171 453,461.5C 452.5,441.836 452.333,422.169 452.5,402.5C 453.29,403.609 453.79,404.942 454,406.5C 480.833,350.833 507.667,295.167 534.5,239.5C 533.675,238.614 532.675,238.281 531.5,238.5C 539.455,235.187 547.789,232.853 556.5,231.5 Z"/></g>
<g><path style="opacity:1" fill="#23b2a5" d="M 347.5,232.5 C 354.107,234.702 360.774,236.702 367.5,238.5C 345.117,285.6 322.45,332.6 299.5,379.5C 298.675,380.386 297.675,380.719 296.5,380.5C 289.626,380.479 282.959,379.813 276.5,378.5C 277.376,378.631 278.043,378.298 278.5,377.5C 301.705,329.59 325.039,281.757 348.5,234C 347.944,233.617 347.611,233.117 347.5,232.5 Z"/></g>
<g><path style="opacity:1" fill="#1c928b" d="M 531.5,238.5 C 532.675,238.281 533.675,238.614 534.5,239.5C 507.667,295.167 480.833,350.833 454,406.5C 453.79,404.942 453.29,403.609 452.5,402.5C 452.5,389.167 452.5,375.833 452.5,362.5C 453.302,363.952 453.802,365.618 454,367.5C 473,328.167 492,288.833 511,249.5C 511.74,248.251 511.573,247.251 510.5,246.5C 517.112,243.07 524.112,240.403 531.5,238.5 Z"/></g>
<g><path style="opacity:1" fill="#24b8aa" d="M 367.5,238.5 C 372.751,240.695 378.084,242.695 383.5,244.5C 362.062,290.71 340.062,336.71 317.5,382.5C 317.043,383.298 316.376,383.631 315.5,383.5C 309.019,382.585 302.685,381.585 296.5,380.5C 297.675,380.719 298.675,380.386 299.5,379.5C 322.45,332.6 345.117,285.6 367.5,238.5 Z"/></g>
<g><path style="opacity:1" fill="#1c8b86" d="M 510.5,246.5 C 511.573,247.251 511.74,248.251 511,249.5C 492,288.833 473,328.167 454,367.5C 453.802,365.618 453.302,363.952 452.5,362.5C 452.333,339.831 452.5,317.164 453,294.5C 456.774,291.448 458.774,287.448 459,282.5C 461.967,275.726 466.467,270.226 472.5,266C 484.469,258.182 497.136,251.682 510.5,246.5 Z"/></g>
<g><path style="opacity:1" fill="#25beaf" d="M 383.5,244.5 C 388.685,246.594 393.685,248.928 398.5,251.5C 398.313,253.564 397.813,255.564 397,257.5C 381.061,289.711 365.394,322.044 350,354.5C 344.647,365.878 338.814,376.878 332.5,387.5C 326.614,386.61 320.947,385.277 315.5,383.5C 316.376,383.631 317.043,383.298 317.5,382.5C 340.062,336.71 362.062,290.71 383.5,244.5 Z"/></g>
<g><path style="opacity:1" fill="#26c5b4" d="M 398.5,251.5 C 404.151,253.659 409.484,256.326 414.5,259.5C 393.18,303.474 371.847,347.474 350.5,391.5C 350.043,392.298 349.376,392.631 348.5,392.5C 342.88,391.434 337.547,389.767 332.5,387.5C 338.814,376.878 344.647,365.878 350,354.5C 365.394,322.044 381.061,289.711 397,257.5C 397.813,255.564 398.313,253.564 398.5,251.5 Z"/></g>
<g><path style="opacity:1" fill="#27cbb9" d="M 414.5,259.5 C 420.745,262.755 426.411,266.755 431.5,271.5C 410.046,314.076 389.379,357.076 369.5,400.5C 362.322,398.069 355.322,395.402 348.5,392.5C 349.376,392.631 350.043,392.298 350.5,391.5C 371.847,347.474 393.18,303.474 414.5,259.5 Z"/></g>
<g><path style="opacity:1" fill="#26c5b4" d="M 673.5,240.5 C 676.739,248.216 679.405,256.216 681.5,264.5C 662.658,302.187 644.324,340.187 626.5,378.5C 619.481,378.979 612.481,379.646 605.5,380.5C 628.695,334.109 651.362,287.442 673.5,240.5 Z"/></g>
<g><path style="opacity:1" fill="#27cab9" d="M 681.5,264.5 C 685.269,272.804 688.269,281.471 690.5,290.5C 676.89,318.719 663.557,347.052 650.5,375.5C 642.5,376.621 634.5,377.621 626.5,378.5C 644.324,340.187 662.658,302.187 681.5,264.5 Z"/></g>
<g><path style="opacity:1" fill="#2ad1bf" d="M 431.5,271.5 C 436.767,276.7 439.933,283.033 441,290.5C 442.333,291.833 443.667,293.167 445,294.5C 445.667,348.833 445.667,403.167 445,457.5C 442.313,446.636 436.48,437.802 427.5,431C 409.467,418.482 390.133,408.315 369.5,400.5C 389.379,357.076 410.046,314.076 431.5,271.5 Z"/></g>
<g><path style="opacity:1" fill="#2bd1bf" d="M 690.5,290.5 C 699.094,312.114 706.594,334.114 713,356.5C 692.877,365.152 672.044,371.485 650.5,375.5C 663.557,347.052 676.89,318.719 690.5,290.5 Z"/></g>
<g><path style="opacity:1" fill="#1e8682" d="M 205.5,377.5 C 205.719,378.675 205.386,379.675 204.5,380.5C 194.94,386.112 185.273,391.445 175.5,396.5C 174.351,396.209 173.684,395.376 173.5,394C 174.787,385.51 177.454,377.51 181.5,370C 189.712,371.594 197.712,374.094 205.5,377.5 Z"/></g>
<g><path style="opacity:1" fill="#31c4b4" d="M 717.5,369.5 C 696.428,382.565 675.094,395.232 653.5,407.5C 633.833,407.5 614.167,407.5 594.5,407.5C 603.324,406.67 612.324,406.17 621.5,406C 630.833,400.667 640.167,395.333 649.5,390C 648.207,389.51 646.873,389.343 645.5,389.5C 669.986,385.083 693.819,378.083 717,368.5C 717.399,368.728 717.565,369.062 717.5,369.5 Z"/></g>
<g><path style="opacity:1" fill="#2ecfbd" d="M 717.5,369.5 C 718.79,370.058 719.623,371.058 720,372.5C 723.225,380.549 725.059,388.716 725.5,397C 701.924,403.429 677.924,406.929 653.5,407.5C 675.094,395.232 696.428,382.565 717.5,369.5 Z"/></g>
<g><path style="opacity:1" fill="#20928b" d="M 205.5,377.5 C 214.652,380.772 223.985,383.439 233.5,385.5C 233.047,386.458 232.381,387.292 231.5,388C 224.337,391.747 217.337,395.747 210.5,400C 207.464,402.006 204.131,402.84 200.5,402.5C 191.799,401.574 183.465,399.574 175.5,396.5C 185.273,391.445 194.94,386.112 204.5,380.5C 205.386,379.675 205.719,378.675 205.5,377.5 Z"/></g>
<g><path style="opacity:1" fill="#229f95" d="M 233.5,385.5 C 241.119,387.09 248.786,388.424 256.5,389.5C 255.358,391.433 253.692,392.933 251.5,394C 243.561,398.468 235.561,402.634 227.5,406.5C 218.262,405.913 209.262,404.579 200.5,402.5C 204.131,402.84 207.464,402.006 210.5,400C 217.337,395.747 224.337,391.747 231.5,388C 232.381,387.292 233.047,386.458 233.5,385.5 Z"/></g>
<g><path style="opacity:1" fill="#25aa9f" d="M 256.5,389.5 C 265.836,390.5 275.169,391.5 284.5,392.5C 284.586,393.496 284.252,394.329 283.5,395C 275.74,399.21 268.073,403.376 260.5,407.5C 249.321,407.828 238.321,407.495 227.5,406.5C 235.561,402.634 243.561,398.468 251.5,394C 253.692,392.933 255.358,391.433 256.5,389.5 Z"/></g>
<g><path style="opacity:1" fill="#2ab5a8" d="M 645.5,389.5 C 646.873,389.343 648.207,389.51 649.5,390C 640.167,395.333 630.833,400.667 621.5,406C 612.324,406.17 603.324,406.67 594.5,407.5C 590.434,407.307 586.434,407.64 582.5,408.5C 589.397,403.467 596.731,398.967 604.5,395C 602.527,394.505 600.527,394.338 598.5,394.5C 613.951,392.121 629.618,390.454 645.5,389.5 Z"/></g>
<g><path style="opacity:1" fill="#27b7a9" d="M 284.5,392.5 C 295.961,393.349 307.295,395.016 318.5,397.5C 318.586,398.496 318.252,399.329 317.5,400C 313.673,401.746 310.007,403.746 306.5,406C 303.854,406.497 301.187,406.664 298.5,406.5C 285.817,406.374 273.15,406.707 260.5,407.5C 268.073,403.376 275.74,399.21 283.5,395C 284.252,394.329 284.586,393.496 284.5,392.5 Z"/></g>
<g><path style="opacity:1" fill="#41d1c0" d="M 318.5,397.5 C 347.644,404.937 375.644,415.437 402.5,429C 384.78,423.4 366.78,418.4 348.5,414C 331.833,410.498 315.167,407.998 298.5,406.5C 301.187,406.664 303.854,406.497 306.5,406C 310.007,403.746 313.673,401.746 317.5,400C 318.252,399.329 318.586,398.496 318.5,397.5 Z"/></g>
<g><path style="opacity:1" fill="#31aa9f" d="M 598.5,394.5 C 600.527,394.338 602.527,394.505 604.5,395C 596.731,398.967 589.397,403.467 582.5,408.5C 559.739,411.273 537.406,416.106 515.5,423C 509.794,425.069 504.128,427.235 498.5,429.5C 497.304,429.154 497.304,428.654 498.5,428C 522.58,415.973 547.58,406.306 573.5,399C 581.742,396.918 590.075,395.418 598.5,394.5 Z"/></g>
<g><path style="opacity:1" fill="#2fd0be" d="M 632.5,436.5 C 636.514,436.666 640.514,436.499 644.5,436C 661.746,430.585 678.746,424.585 695.5,418C 693.866,417.506 692.199,417.34 690.5,417.5C 702.748,415.025 715.081,412.359 727.5,409.5C 729.305,419.747 730.305,430.08 730.5,440.5C 709.872,442.299 689.205,442.799 668.5,442C 656.267,440.808 644.267,438.975 632.5,436.5 Z"/></g>
<g><path style="opacity:1" fill="#218c86" d="M 210.5,417.5 C 197.238,422.922 183.572,427.588 169.5,431.5C 169.51,424.1 170.176,416.767 171.5,409.5C 184.395,412.64 197.395,415.307 210.5,417.5 Z"/></g>
<g><path style="opacity:1" fill="#2cc3b4" d="M 690.5,417.5 C 692.199,417.34 693.866,417.506 695.5,418C 678.746,424.585 661.746,430.585 644.5,436C 640.514,436.499 636.514,436.666 632.5,436.5C 628.267,436.461 624.267,435.795 620.5,434.5C 633.18,430.44 645.847,426.273 658.5,422C 651.987,421.828 645.653,421.328 639.5,420.5C 656.607,421.03 673.607,420.03 690.5,417.5 Z"/></g>
<g><path style="opacity:1" fill="#1f9890" d="M 210.5,417.5 C 220.065,419.404 229.731,420.404 239.5,420.5C 220.241,427.364 200.908,434.031 181.5,440.5C 177.167,440.5 172.833,440.5 168.5,440.5C 168.264,437.391 168.597,434.391 169.5,431.5C 183.572,427.588 197.238,422.922 210.5,417.5 Z"/></g>
<g><path style="opacity:1" fill="#2db2a6" d="M 263.5,420.5 C 278.678,419.278 294.011,419.278 309.5,420.5C 309.389,421.117 309.056,421.617 308.5,422C 296.229,426.202 283.895,430.202 271.5,434C 270.944,434.383 270.611,434.883 270.5,435.5C 244.004,441.486 217.337,443.486 190.5,441.5C 199.235,441.876 207.902,441.376 216.5,440C 235.771,433.465 255.104,427.132 274.5,421C 270.848,420.501 267.182,420.335 263.5,420.5 Z"/></g>
<g><path style="opacity:1" fill="#20a298" d="M 239.5,420.5 C 247.5,420.5 255.5,420.5 263.5,420.5C 267.182,420.335 270.848,420.501 274.5,421C 255.104,427.132 235.771,433.465 216.5,440C 207.902,441.376 199.235,441.876 190.5,441.5C 187.287,441.81 184.287,441.477 181.5,440.5C 200.908,434.031 220.241,427.364 239.5,420.5 Z"/></g>
<g><path style="opacity:1" fill="#28bcad" d="M 309.5,420.5 C 320.298,421.522 330.965,423.189 341.5,425.5C 341.5,426.5 341.5,427.5 341.5,428.5C 338.432,429.022 335.432,429.855 332.5,431C 321.326,431.17 310.326,431.67 299.5,432.5C 289.761,432.844 280.094,433.844 270.5,435.5C 270.611,434.883 270.944,434.383 271.5,434C 283.895,430.202 296.229,426.202 308.5,422C 309.056,421.617 309.389,421.117 309.5,420.5 Z"/></g>
<g><path style="opacity:1" fill="#2db8ab" d="M 596.5,420.5 C 610.667,419.59 625.001,419.59 639.5,420.5C 645.653,421.328 651.987,421.828 658.5,422C 645.847,426.273 633.18,430.44 620.5,434.5C 604.215,432.856 587.882,432.189 571.5,432.5C 587.51,430.903 603.176,427.069 618.5,421C 611.174,420.5 603.841,420.334 596.5,420.5 Z"/></g>
<g><path style="opacity:1" fill="#2ea79d" d="M 596.5,420.5 C 603.841,420.334 611.174,420.5 618.5,421C 603.176,427.069 587.51,430.903 571.5,432.5C 561.481,433.053 551.481,433.886 541.5,435C 527.41,437.22 513.41,439.554 499.5,442C 530.775,429.93 563.108,422.764 596.5,420.5 Z"/></g>
<g><path style="opacity:1" fill="#4ad4c4" d="M 341.5,425.5 C 362.223,429.931 382.557,435.765 402.5,443C 368.665,435.332 334.332,431.832 299.5,432.5C 310.326,431.67 321.326,431.17 332.5,431C 335.432,429.855 338.432,429.022 341.5,428.5C 341.5,427.5 341.5,426.5 341.5,425.5 Z"/></g>
<g><path style="opacity:1" fill="#26ab9f" d="M 309.5,445.5 C 287.492,454.335 265.326,462.668 243,470.5C 241.97,470.836 241.47,471.503 241.5,472.5C 225.091,476.679 208.424,479.346 191.5,480.5C 191.47,479.503 191.97,478.836 193,478.5C 219.113,468.861 245.279,459.361 271.5,450C 270.552,449.517 269.552,449.351 268.5,449.5C 281.828,446.144 295.494,444.811 309.5,445.5 Z"/></g>
<g><path style="opacity:1" fill="#2db8ab" d="M 309.5,445.5 C 337.471,445.367 365.137,448.2 392.5,454C 340.795,449.23 290.462,455.396 241.5,472.5C 241.47,471.503 241.97,470.836 243,470.5C 265.326,462.668 287.492,454.335 309.5,445.5 Z"/></g>
<g><path style="opacity:1" fill="#2f948e" d="M 577.5,445.5 C 572.128,448.129 566.461,450.296 560.5,452C 549.659,452.17 538.992,452.67 528.5,453.5C 521.482,453.746 514.482,453.913 507.5,454C 524.301,450.124 541.301,447.457 558.5,446C 564.825,445.5 571.158,445.334 577.5,445.5 Z"/></g>
<g><path style="opacity:1" fill="#30a99f" d="M 577.5,445.5 C 596.466,444.418 615.132,446.085 633.5,450.5C 625.425,454.859 616.758,457.525 607.5,458.5C 581.357,454.091 555.024,452.425 528.5,453.5C 538.992,452.67 549.659,452.17 560.5,452C 566.461,450.296 572.128,448.129 577.5,445.5 Z"/></g>
<g><path style="opacity:1" fill="#30d1bf" d="M 651.5,470.5 C 664.578,465.696 677.578,460.696 690.5,455.5C 704.538,454.853 718.538,453.853 732.5,452.5C 732.878,462.165 733.211,471.831 733.5,481.5C 705.404,482.429 678.07,478.762 651.5,470.5 Z"/></g>
<g><path style="opacity:1" fill="#229d94" d="M 268.5,449.5 C 269.552,449.351 270.552,449.517 271.5,450C 245.279,459.361 219.113,468.861 193,478.5C 191.97,478.836 191.47,479.503 191.5,480.5C 182.851,481.203 174.185,481.536 165.5,481.5C 165.179,475.974 165.512,470.64 166.5,465.5C 166.192,467.924 166.526,470.257 167.5,472.5C 182.677,467.001 197.677,461.334 212.5,455.5C 231.334,454.82 250.001,452.82 268.5,449.5 Z"/></g>
<g><path style="opacity:1" fill="#1e918a" d="M 212.5,455.5 C 197.677,461.334 182.677,467.001 167.5,472.5C 166.526,470.257 166.192,467.924 166.5,465.5C 166.335,461.818 166.501,458.152 167,454.5C 167.519,453.484 168.353,452.818 169.5,452.5C 183.75,454.644 198.083,455.644 212.5,455.5 Z"/></g>
<g><path style="opacity:1" fill="#29bfb0" d="M 633.5,450.5 C 645.156,451.998 656.822,453.498 668.5,455C 675.826,455.5 683.159,455.666 690.5,455.5C 677.578,460.696 664.578,465.696 651.5,470.5C 636.73,466.477 622.064,462.477 607.5,458.5C 616.758,457.525 625.425,454.859 633.5,450.5 Z"/></g>
<g><path style="opacity:1" fill="#0a0a0a" d="M 412.5,538.5 C 415.5,538.5 418.5,538.5 421.5,538.5C 421.167,557.179 421.5,575.845 422.5,594.5C 429.786,589.023 437.786,584.856 446.5,582C 465.53,578.413 477.03,585.913 481,604.5C 481.333,624.167 481.667,643.833 482,663.5C 482.903,664.701 484.069,665.535 485.5,666C 488.482,666.498 491.482,666.665 494.5,666.5C 494.5,668.5 494.5,670.5 494.5,672.5C 479.833,672.5 465.167,672.5 450.5,672.5C 450.5,670.5 450.5,668.5 450.5,666.5C 454.273,666.737 457.94,666.237 461.5,665C 462.893,663.829 463.727,662.329 464,660.5C 464.667,642.833 464.667,625.167 464,607.5C 460.849,593.831 452.349,588.665 438.5,592C 430.73,594.771 425.23,599.937 422,607.5C 421.333,625.167 421.333,642.833 422,660.5C 422.398,663.232 423.898,665.065 426.5,666C 429.482,666.498 432.482,666.665 435.5,666.5C 435.5,668.5 435.5,670.5 435.5,672.5C 420.833,672.5 406.167,672.5 391.5,672.5C 391.5,670.5 391.5,668.5 391.5,666.5C 396.118,667.076 400.285,666.076 404,663.5C 404.667,625.833 404.667,588.167 404,550.5C 400.623,547.987 396.79,546.987 392.5,547.5C 392.5,545.833 392.5,544.167 392.5,542.5C 399.362,541.528 406.028,540.194 412.5,538.5 Z"/></g>
<g><path style="opacity:1" fill="#030303" d="M 517.5,538.5 C 520.85,538.335 524.183,538.502 527.5,539C 528.333,539.833 529.167,540.667 530,541.5C 528.608,557.191 526.775,572.857 524.5,588.5C 523.167,588.5 521.833,588.5 520.5,588.5C 518.781,574.466 516.781,560.466 514.5,546.5C 514.073,543.174 515.073,540.508 517.5,538.5 Z"/></g>
<g><path style="opacity:1" fill="#080808" d="M 728.5,538.5 C 730.833,538.5 733.167,538.5 735.5,538.5C 735.333,557.17 735.5,575.836 736,594.5C 743.024,588.904 750.857,584.737 759.5,582C 780.687,579.172 794.187,588.006 800,608.5C 802.655,623.101 801.655,637.434 797,651.5C 789.993,665.604 778.493,673.104 762.5,674C 750.828,675.277 739.828,673.11 729.5,667.5C 726.849,669.65 724.349,671.983 722,674.5C 721,673.833 720,673.167 719,672.5C 718.667,631.5 718.333,590.5 718,549.5C 714.38,547.817 710.546,547.15 706.5,547.5C 706.5,545.833 706.5,544.167 706.5,542.5C 713.981,541.268 721.315,539.935 728.5,538.5 Z"/></g>
<g><path style="opacity:1" fill="#060606" d="M 672.5,543.5 C 683.988,541.496 689.155,546.162 688,557.5C 686.466,562.689 682.966,565.023 677.5,564.5C 668.974,563.826 665.474,559.16 667,550.5C 667.967,547.379 669.8,545.046 672.5,543.5 Z"/></g>
<g><path style="opacity:1" fill="#8e8e8e" d="M 605.5,547.5 C 588.5,547.5 571.5,547.5 554.5,547.5C 554.5,549.167 554.5,550.833 554.5,552.5C 553.539,550.735 553.205,548.735 553.5,546.5C 571.008,546.17 588.341,546.503 605.5,547.5 Z"/></g>
<g><path style="opacity:1" fill="#050505" d="M 97.5,547.5 C 120.865,547.086 144.198,547.586 167.5,549C 192.569,557.466 200.403,574.3 191,599.5C 184.38,610.071 174.88,616.571 162.5,619C 152.203,620.226 141.87,620.726 131.5,620.5C 131.333,634.171 131.5,647.837 132,661.5C 132.935,664.102 134.768,665.602 137.5,666C 141.821,666.499 146.154,666.666 150.5,666.5C 150.5,668.5 150.5,670.5 150.5,672.5C 132.833,672.5 115.167,672.5 97.5,672.5C 97.5,670.5 97.5,668.5 97.5,666.5C 101.936,666.79 106.27,666.29 110.5,665C 111.701,664.097 112.535,662.931 113,661.5C 113.667,626.5 113.667,591.5 113,556.5C 108.446,553.041 103.279,551.708 97.5,552.5C 97.5,550.833 97.5,549.167 97.5,547.5 Z"/></g>
<g><path style="opacity:1" fill="#020202" d="M 605.5,547.5 C 605.5,549.167 605.5,550.833 605.5,552.5C 600.733,552.191 596.066,552.691 591.5,554C 589.741,555.008 588.574,556.508 588,558.5C 587.333,591.167 587.333,623.833 588,656.5C 588.079,661.502 590.579,664.335 595.5,665C 604.833,665.667 614.167,665.667 623.5,665C 636.743,662.408 643.577,654.242 644,640.5C 645.699,639.594 647.533,639.261 649.5,639.5C 648.667,650.153 648.001,660.82 647.5,671.5C 616.5,671.5 585.5,671.5 554.5,671.5C 554.5,669.833 554.5,668.167 554.5,666.5C 559.663,666.92 564.496,665.92 569,663.5C 569.333,662.5 569.667,661.5 570,660.5C 570.667,626.167 570.667,591.833 570,557.5C 568.661,554.906 566.494,553.406 563.5,553C 560.518,552.502 557.518,552.335 554.5,552.5C 554.5,550.833 554.5,549.167 554.5,547.5C 571.5,547.5 588.5,547.5 605.5,547.5 Z"/></g>
<g><path style="opacity:1" fill="#fdfdfd" d="M 135.5,553.5 C 168.545,552.059 180.712,567.392 172,599.5C 165.335,610.417 155.501,615.417 142.5,614.5C 139.833,614.333 137.167,614.167 134.5,614C 133.667,613.167 132.833,612.333 132,611.5C 131.333,593.167 131.333,574.833 132,556.5C 133.145,555.364 134.312,554.364 135.5,553.5 Z"/></g>
<g><path style="opacity:1" fill="#060606" d="M 235.5,581.5 C 275.166,579.109 292.999,597.775 289,637.5C 285.242,661.756 271.075,674.09 246.5,674.5C 217.031,673.194 202.364,657.694 202.5,628C 201.668,603.755 212.668,588.255 235.5,581.5 Z"/></g>
<g><path style="opacity:1" fill="#060606" d="M 340.5,581.5 C 352.917,579.865 364.584,582.032 375.5,588C 379.356,590.715 381.689,594.381 382.5,599C 380.595,606.291 375.928,608.957 368.5,607C 366.141,602.451 363.641,597.951 361,593.5C 351.159,585.142 341.826,585.808 333,595.5C 325.474,609.311 323.474,623.978 327,639.5C 332.536,663.352 346.37,670.185 368.5,660C 372.358,656.451 375.358,652.285 377.5,647.5C 379.401,646.769 381.401,646.769 383.5,647.5C 379.318,662.845 369.318,671.678 353.5,674C 328.035,676.507 312.868,665.34 308,640.5C 305.155,624.704 307.822,610.038 316,596.5C 322.788,589.033 330.955,584.033 340.5,581.5 Z"/></g>
<g><path style="opacity:1" fill="#030303" d="M 699.5,666.5 C 699.5,668.167 699.5,669.833 699.5,671.5C 685.167,671.5 670.833,671.5 656.5,671.5C 656.5,669.833 656.5,668.167 656.5,666.5C 660.247,666.608 663.914,666.108 667.5,665C 668.126,664.25 668.626,663.416 669,662.5C 669.667,639.833 669.667,617.167 669,594.5C 668.5,593.333 667.667,592.5 666.5,592C 663.243,590.957 659.91,590.457 656.5,590.5C 656.5,588.833 656.5,587.167 656.5,585.5C 665.224,584.602 673.89,583.268 682.5,581.5C 683.772,581.57 684.938,581.903 686,582.5C 686.333,609.167 686.667,635.833 687,662.5C 687.5,664.333 688.667,665.5 690.5,666C 693.482,666.498 696.482,666.665 699.5,666.5 Z"/></g>
<g><path style="opacity:1" fill="#fcfcfc" d="M 240.5,587.5 C 252.045,586.059 260.545,590.392 266,600.5C 267.954,604.981 269.287,609.648 270,614.5C 270.87,624.885 270.536,635.218 269,645.5C 264.791,665.183 253.291,671.683 234.5,665C 227.113,658.526 222.947,650.359 222,640.5C 221.333,631.833 221.333,623.167 222,614.5C 223.291,601.849 229.458,592.849 240.5,587.5 Z"/></g>
<g><path style="opacity:1" fill="#fcfcfc" d="M 751.5,591.5 C 768.031,589.19 778.197,596.19 782,612.5C 782.832,624.206 782.499,635.872 781,647.5C 775.516,665.992 763.683,671.825 745.5,665C 740.374,661.525 737.208,656.691 736,650.5C 735.333,636.167 735.333,621.833 736,607.5C 738.685,599.65 743.852,594.316 751.5,591.5 Z"/></g>
<g><path style="opacity:1" fill="#6a6a6a" d="M 554.5,666.5 C 554.5,668.167 554.5,669.833 554.5,671.5C 585.5,671.5 616.5,671.5 647.5,671.5C 616.338,672.498 585.004,672.832 553.5,672.5C 553.205,670.265 553.539,668.265 554.5,666.5 Z"/></g>
<g><path style="opacity:1" fill="#6e6e6e" d="M 656.5,666.5 C 656.5,668.167 656.5,669.833 656.5,671.5C 670.833,671.5 685.167,671.5 699.5,671.5C 699.5,669.833 699.5,668.167 699.5,666.5C 700.461,668.265 700.795,670.265 700.5,672.5C 685.5,672.5 670.5,672.5 655.5,672.5C 655.205,670.265 655.539,668.265 656.5,666.5 Z"/></g>
</svg>
